<?xml version="1.0" encoding="utf-8"?>
<!-- Generator: Adobe Illustrator 28.1.0, SVG Export Plug-In . SVG Version: 6.00 Build 0)  -->
<svg version="1.1" id="Layer_1" xmlns="http://www.w3.org/2000/svg" xmlns:xlink="http://www.w3.org/1999/xlink" x="0px" y="0px"
	 viewBox="0 0 101.1 20" style="enable-background:new 0 0 101.1 20;" xml:space="preserve">
<style type="text/css">
	.st0{fill:#F2F6CB;}
</style>
<path class="st0" d="M73.6,5.5V3.4c0,0,1.4,0,1.9,0c0.6,0,1,0.3,1,0.3c0.2,0.2,0.3,0.4,0.3,0.8c0,0.9-0.7,1.2-1.3,1.2L73.6,5.5
	l6,5.4V7.8l-1.3-1.4c0.1-0.1,0.3-0.2,0.4-0.3c0.6-0.6,0.9-1.4,0.9-2.2c0-1.1-0.3-1.8-0.9-2.3c0,0,0,0-0.1,0
	c-0.6-0.5-1.3-0.7-2.2-0.7c-0.2,0-0.3,0-0.3,0h-5.3v7.2l2.8,2.6V5.5z"/>
<path class="st0" d="M73.6,5.5V3.4c0,0,1.4,0,1.9,0c0.6,0,1,0.3,1,0.3c0.2,0.2,0.3,0.4,0.3,0.8c0,0.9-0.7,1.2-1.3,1.2L73.6,5.5
	l6,5.4V7.8l-1.3-1.4c0.1-0.1,0.3-0.2,0.4-0.3c0.6-0.6,0.9-1.4,0.9-2.2c0-1.1-0.3-1.8-0.9-2.3c0,0,0,0-0.1,0
	c-0.6-0.5-1.3-0.7-2.2-0.7c-0.2,0-0.3,0-0.3,0h-5.3v7.2l2.8,2.6V5.5z"/>
<path class="st0" d="M52.5,3.2l-2.9-2.3v4.6l-6-4.7v7.7l2.7,2.3V6.1l1.8,1.4l4.5,3.4L52.5,3.2L52.5,3.2z"/>
<path class="st0" d="M52.5,3.2l-2.9-2.3v4.6l-6-4.7v7.7l2.7,2.3V6.1l1.8,1.4l4.5,3.4L52.5,3.2L52.5,3.2z"/>
<path class="st0" d="M27.2,5.1V0.9l-5,4.8l-0.9,0.9l-1.1,1.1v3.1l4.3-4.2v4.3l1.3-1.2L29,6.5v4.3l2.6-3V0.9L27.2,5.1z"/>
<path class="st0" d="M27.2,5.1V0.9l-5,4.8l-0.9,0.9l-1.1,1.1v3.1l4.3-4.2v4.3l1.3-1.2L29,6.5v4.3l2.6-3V0.9L27.2,5.1z"/>
<path class="st0" d="M37.7,0.5c-0.1,0-0.1,0-0.2,0c-0.5,0-1.1,0.1-1.7,0.3c-0.1,0-0.1,0-0.2,0.1c-0.4,0.2-0.8,0.4-1.2,0.7
	c-3,2.2-2,5.5-2,5.5c0.4,1.8,1.8,3.1,3.4,3.6c0,0,1.7,0.7,3.6,0c1.7-0.8,2.6-1.9,3.1-2.8C42.8,7.2,43,6.5,43,5.8
	C43,2.9,40.6,0.5,37.7,0.5z M37.7,8.3c-1.4,0-2.6-1.2-2.6-2.4c0-1.4,1.2-2.5,2.5-2.5c1.4,0,2.6,1.2,2.6,2.5c0,0.6-0.2,1.2-0.7,1.7
	l-0.2,0.1l-0.1,0.1C38.8,8.1,38.3,8.3,37.7,8.3z"/>
<path class="st0" d="M37.7,0.5c-0.1,0-0.1,0-0.2,0c-0.5,0-1.1,0.1-1.7,0.3c-0.1,0-0.1,0-0.2,0.1c-0.4,0.2-0.8,0.4-1.2,0.7
	c-3,2.2-2,5.5-2,5.5c0.4,1.8,1.8,3.1,3.4,3.6c0,0,1.7,0.7,3.6,0c1.7-0.8,2.6-1.9,3.1-2.8C42.8,7.2,43,6.5,43,5.8
	C43,2.9,40.6,0.5,37.7,0.5z M37.7,8.3c-1.4,0-2.6-1.2-2.6-2.4c0-1.4,1.2-2.5,2.5-2.5c1.4,0,2.6,1.2,2.6,2.5c0,0.6-0.2,1.2-0.7,1.7
	l-0.2,0.1l-0.1,0.1C38.8,8.1,38.3,8.3,37.7,8.3z"/>
<path class="st0" d="M60,4.6h-1.6h-2.5h-0.1V3.2h5h0.3l2.5-2.3h-5.9h-2.3L53,3.2v1.5V7v0.2v3.6h2.8h2.8l1.8-2.5h-4.6V7.1h0.1h1.8
	l2.5-2.4L60,4.6L60,4.6z"/>
<path class="st0" d="M60,4.6h-1.6h-2.5h-0.1V3.2h5h0.3l2.5-2.3h-5.9h-2.3L53,3.2v1.5V7v0.2v3.6h2.8h2.8l1.8-2.5h-4.6V7.1h0.1h1.8
	l2.5-2.4L60,4.6L60,4.6z"/>
<path class="st0" d="M80.2,7.1c0.4,1.8,1.8,3.1,3.4,3.6c0,0,1.7,0.7,3.6,0c1.7-0.7,2.6-1.9,3.1-2.8c0.3-0.7,0.5-1.4,0.5-2.1
	c0-2.9-2.4-5.2-5.3-5.2c-0.1,0-0.1,0-0.2,0c-0.5,0-1.1,0.1-1.7,0.3c-0.1,0-0.1,0-0.2,0.1c-0.1,0-0.2,0.1-0.3,0.1
	c-0.3,0.2-0.6,0.3-0.9,0.5C79.2,3.7,80.2,7.1,80.2,7.1z M87.9,5.8c0,0.6-0.2,1.2-0.7,1.7L87,7.7l-0.1,0.1c-0.4,0.3-0.9,0.5-1.5,0.5
	c-1.4,0-2.6-1.2-2.6-2.4c0-1.4,1.1-2.5,2.5-2.5C86.8,3.4,87.9,4.4,87.9,5.8z"/>
<path class="st0" d="M80.2,7.1c0.4,1.8,1.8,3.1,3.4,3.6c0,0,1.7,0.7,3.6,0c1.7-0.7,2.6-1.9,3.1-2.8c0.3-0.7,0.5-1.4,0.5-2.1
	c0-2.9-2.4-5.2-5.3-5.2c-0.1,0-0.1,0-0.2,0c-0.5,0-1.1,0.1-1.7,0.3c-0.1,0-0.1,0-0.2,0.1c-0.1,0-0.2,0.1-0.3,0.1
	c-0.3,0.2-0.6,0.3-0.9,0.5C79.2,3.7,80.2,7.1,80.2,7.1z M87.9,5.8c0,0.6-0.2,1.2-0.7,1.7L87,7.7l-0.1,0.1c-0.4,0.3-0.9,0.5-1.5,0.5
	c-1.4,0-2.6-1.2-2.6-2.4c0-1.4,1.1-2.5,2.5-2.5C86.8,3.4,87.9,4.4,87.9,5.8z"/>
<path class="st0" d="M65.8,10.9h1.6v-0.1h2.4h0.3v-3l-2.8-2.5v3h-1.1c-0.1,0-0.2,0-0.3,0c-0.2,0-0.4-0.1-0.6-0.2
	C65,8,64.8,7.8,64.6,7.6c-0.4-0.5-0.7-1.1-0.7-1.7c0-1.1,0.7-2.6,2.7-2.6h0.7l2.5-2.4h-3.1c-1.5,0-2.8,0.5-3.9,1.5
	c-1.1,1-1.6,2.2-1.6,3.6s0.5,2.5,1.4,3.4c0.2,0.2,0.4,0.4,0.6,0.5c0,0,0,0,0,0.1C64.4,10.9,65.8,10.9,65.8,10.9z"/>
<path class="st0" d="M65.8,10.9h1.6v-0.1h2.4h0.3v-3l-2.8-2.5v3h-1.1c-0.1,0-0.2,0-0.3,0c-0.2,0-0.4-0.1-0.6-0.2
	C65,8,64.8,7.8,64.6,7.6c-0.4-0.5-0.7-1.1-0.7-1.7c0-1.1,0.7-2.6,2.7-2.6h0.7l2.5-2.4h-3.1c-1.5,0-2.8,0.5-3.9,1.5
	c-1.1,1-1.6,2.2-1.6,3.6s0.5,2.5,1.4,3.4c0.2,0.2,0.4,0.4,0.6,0.5c0,0,0,0,0,0.1C64.4,10.9,65.8,10.9,65.8,10.9z"/>
<path class="st0" d="M95.1,8.4C95,8.4,95,8.4,95.1,8.4h-4l-2,2.4h6.2c0,0,0,0,0.1,0h0.1c0.8,0,1.5-0.4,2.1-0.9
	c0.6-0.6,0.9-1.4,0.9-2.2c-0.1-0.9-0.4-1.6-1-2.2c-0.3-0.3-0.6-0.4-0.9-0.6c-0.2,0-0.3,0-0.4-0.1c-0.5-0.2-1.6-0.2-1.6-0.2
	s-0.1,0-0.2,0c-0.3-0.1-0.5-0.3-0.5-0.6c0-0.4,0.1-0.6,0.6-0.6h1.2l2.2-2.5h-3.2c-0.9,0-1.6,0.3-2.3,0.9S91.5,3.1,91.5,4
	s0.3,1.8,0.9,2.3c0.7,0.6,1.5,0.9,2.5,0.9c0.2,0,0.4,0,0.5,0.1v0.1C95.4,7.3,95.9,8,95.1,8.4z"/>
<path class="st0" d="M95.1,8.4C95,8.4,95,8.4,95.1,8.4h-4l-2,2.4h6.2c0,0,0,0,0.1,0h0.1c0.8,0,1.5-0.4,2.1-0.9
	c0.6-0.6,0.9-1.4,0.9-2.2c-0.1-0.9-0.4-1.6-1-2.2c-0.3-0.3-0.6-0.4-0.9-0.6c-0.2,0-0.3,0-0.4-0.1c-0.5-0.2-1.6-0.2-1.6-0.2
	s-0.1,0-0.2,0c-0.3-0.1-0.5-0.3-0.5-0.6c0-0.4,0.1-0.6,0.6-0.6h1.2l2.2-2.5h-3.2c-0.9,0-1.6,0.3-2.3,0.9S91.5,3.1,91.5,4
	s0.3,1.8,0.9,2.3c0.7,0.6,1.5,0.9,2.5,0.9c0.2,0,0.4,0,0.5,0.1v0.1C95.4,7.3,95.9,8,95.1,8.4z"/>
<path class="st0" d="M17,5.8c0,0,0-0.6-0.1-1.1c0-0.7-0.5-1-0.6-1.1c0-0.1-0.1-0.1,0,0V3.5c0-0.5-0.6-0.9-0.6-0.9s0.2-0.4,0.2-0.5
	C16,2,16.1,2,16.2,2c-0.1-0.1-0.1-0.4,0.1-0.7S16.5,1,16.5,1l-0.1-0.3l0.1-0.2c-0.1-0.1-0.2-0.2-0.2-0.2s-0.2,0.3,0,0.3
	c0.1,0.1,0.1,0.3-0.1,0.4c-0.3-0.3-0.4-0.4-0.4-0.4V0.5c-0.1-0.1-0.3-0.1-0.3-0.1c-0.1,0.1-0.1,0.3,0,0.3s0.1,0,0.1,0
	C15.7,0.8,16,1.1,16,1.1l-0.4,0.1c0,0-0.1-0.1-0.3-0.1c0.1,0.2,0.2,0.4,0.2,0.4s0.1,0,0.2,0c0.1,0,0.2,0,0.3,0
	c-0.1,0.2-0.6,0.9-0.6,0.9s-0.2-0.7-0.7-0.9c-0.1,0.4-0.3,0.7-0.5,0.7c-0.1-0.4-0.3-0.7-0.3-0.7S13.8,1.9,13.6,2
	c0,0.5-0.1,0.9-0.3,1.2c0.1-0.3,0.1-0.6,0.1-0.8c0.1-0.5,0-0.4-0.2-0.6c-0.3-0.3-0.3-0.7-0.3-0.7c-0.2,0.1-0.2,0.4-0.3,0.5
	c-0.1,0-0.2,0.1-0.3,0.1c0.1,0.3,0.2,0.8,0.2,0.9s-0.1-0.3-0.2-0.5c0.1-0.1,0-0.3,0-0.4c-0.1,0.1-0.6,0.1-0.9-0.1
	c0.1,0.3-0.1,0.6-0.2,0.7C11,2.5,11,2.4,11,2.2v0.1c0,0.1-0.1,0.1-0.1,0.1c-0.1,0.2-0.3,0.5-0.6,0.6C9.8,3.2,9.6,3.3,9.2,3.8
	c-0.1,0-0.3-0.1-0.3-0.1C9,3.9,9,4,8.8,4.1C8.7,4.2,8.5,4.2,8.5,4C8.4,4.3,8,5.1,7.8,5.5C7.5,5.9,7.5,6.2,7.6,6.4
	C7.7,6.6,7.8,6.7,8,6.7s1.8-0.4,2.1-0.5s0.6-0.3,0.6-0.3S10.4,6,10.6,5.8c0.1-0.1,0.1-0.1,0.1-0.1c0.3-0.2,0.5-0.3,0.6-0.5
	c0.1-0.2-0.1-0.3-0.1-0.5V4.6c0,0,0,0,0-0.1s0.1-0.1,0.1-0.1c-0.1-0.1-0.2-0.1-0.2-0.2c0,0,0.1,0,0.1,0.1l0.1-0.1
	c0.1,0.1,0.1,0.1,0.2,0.1C11.7,4,11.9,3.9,12,3.8c0.2-0.1,0.3,0,0.3,0c0-0.1,0-0.3,0.1-0.3s0.3-0.1,0.4-0.3c-0.1,0.3,0,0.5-0.1,0.5
	c0.2,0.2,0.5,0.3,0.6,0.1C13.4,3.6,13.7,3.1,14,3c-0.1,0.1-0.3,0.3-0.3,0.4l-0.1,0.1c-0.2,0.3-0.1,0.6,0.1,0.7
	c0.1-0.3,0.5-0.5,0.5-0.5l-0.1,0.1c-0.1,0.1-0.3,0.4-0.4,0.6c-0.1,0.3-0.3,0.3-0.3,0.3s0.4,0.1,0.2,0.3c-0.1-0.3-0.4-0.3-0.5-0.3
	C13,4.6,13,4.6,13,4.6l-0.3,0.1c0,0,0.1,0.2,0.3,0.1c0.1,0,0.3-0.1,0.4,0.3l-0.5,0.1h-0.1c0,0-0.1,0.1-0.2,0.3
	c0.1,0.1,0.2,0.1,0.3,0.1C13,5.5,13,5.5,13,5.5l0.5-0.2c0,0,0,0.2,0.1,0.3c0,0.1-0.2,0.1,0,0.3c0.1-0.1,0.2-0.2,0.2-0.2V5.5
	c0,0,0.1-0.2,0-0.4c0.1-0.3,0.3-1,1-1.4c-0.1,0.1-0.1,0.1-0.1,0.1s0.1-0.1,0.3-0.2c-0.7,0.7-0.8,1.2-0.8,1.6
	c0.4-0.3,1.8-0.7,2.1-0.1c-0.5-0.1-2.2,0.1-2.2,0.8c0,0.3-0.1,0.7-0.1,0.7s0.3-0.2,0.5-0.1c-0.4,0.1-0.5,0.3-0.7,0.3
	c-0.1,0.1-0.5,0-0.5,0s1.6,0.5,1.7,1.8c-0.6-1.2-1.1-1.4-1.4-1.5C13.3,7,13.2,7,12.9,7.2c-0.3,0.1-0.6,0.2-0.7,0.1
	c0.1,0.1,0.2,0.4-0.1,0.7c-0.2-0.1-0.4-0.3-0.5-0.4c-0.1-0.1-0.1-0.3-0.1-0.5l0.2-0.3c0,0,0.4,0,0.6-0.1h0.1l0.1-0.3
	c0,0-0.3-0.1-0.3,0.1l-0.1,0.1c0,0-0.2,0-0.3-0.1C12,6.2,12.1,6,12.1,6l0.1-0.1c0,0,0.1-0.3,0-0.4c-0.2,0-0.3,0.1-0.3,0.1v0.1
	l-0.3,0.5c0,0-0.2-0.1-0.2-0.3c0-0.1,0-0.1,0-0.1s0-0.1-0.1-0.2c-0.1,0.1-0.1,0.3-0.1,0.3L11.3,6c0,0,0,0.3,0.1,0.4
	c0,0-0.3,0.5-0.7,0.7h-0.1c0.2,0.1,0.5,0.1,0.5,0.5c0.1,0.3,0.4,0.6,0.5,0.7c0.1,0.3,0.7,1.2,0.7,1.8c-0.3-0.8-0.9-2.2-1.6-2
	c-0.1,0-0.1,0.1-0.2,0.1C10,8.5,9.3,8.5,9.3,8.5l0.1,0.1c0,0,0,0,0,0.1H9.3C9.4,8.8,9.5,8.9,9.5,9c0.1,0.3,0.1,0.7,0,0.9
	c-0.1,0.4-0.3,0.6-0.3,0.6s0.4-1.2-0.1-1.9C8.8,8.1,8.6,8.3,8.6,8.4c0,0.1,0,0.1,0.1,0.1c0.1,0,0.1,0.1-0.1,0.1
	C8.5,8.6,8.1,8.3,8,8.1c0.2,0.2,0,0.1-0.1,0.3S7.3,8.9,7,9c0.4-0.2,0.6-0.7,0.6-0.7c-1.3,0-1.4-1.2-1.4-1.2c-0.3,0.3-0.7,0.4-1,0.5
	c0.3-0.1,1-0.4,1-0.8c0-0.1,0-0.1,0-0.1c0-0.1-0.1-0.4-0.1-0.5C6,5.8,6,5.6,6.2,5.4c0.1-0.3,0.2-0.5,0.1-0.5c0-0.1,0.1-0.1,0.1-0.2
	c0,0,0.3-0.8,0.5-0.3L7,4.3c0.1-0.1,0.2-0.5,0.4-0.5c0.1,0-0.1,0.2,0.1,0.1c0.2-0.1,0.9-0.3,0.9-0.3s-0.2,0,0-0.1
	c0.1-0.1,0.3-0.1,0.5-0.3c0.1,0,0.3-0.1,0.4-0.3C9.4,3,9.4,3,9.5,2.9C9.3,2.8,9.4,2.6,9.4,2.6l0.2-0.1c0.1-0.1,0.1-0.4-0.1-0.4
	C9.5,2,9.7,2,9.7,2V1.9c0-0.1,0-0.3-0.1-0.4C9.4,1.3,9.3,1.3,9.3,1.3s0.3-0.1,0.3,0.1c0-0.1,0-0.3,0.1-0.3C9.6,1.1,9.6,1,9.4,1
	c0.2-0.1,0.2-0.2,0.2-0.3c0,0,0,0.1-0.2,0.1c-0.1,0-0.1,0-0.2-0.1C9.1,0.5,9.1,0.4,9,0.4C8.7,0.3,8.2,0.6,8.1,0.6
	C8,0.6,7.9,0.5,7.9,0.5c0,0.2-0.1,0.3-0.3,0.5C7.2,1.2,7.5,1.7,7.8,1.7C7.7,1.6,7.7,1.5,7.7,1.5c0-0.1,0-0.1,0.1-0.1c0,0,0,0,0.1,0
	c0,0.1,0.2,0.3,0.6,0.2c0,0-0.3-0.2-0.3-0.4c0.1-0.1,0-0.3,0-0.3c0-0.1,0-0.1-0.1-0.2C8.1,0.8,8,0.9,8,0.8C7.9,0.7,7.9,0.6,8,0.7
	c0.1,0.1,0.3,0,0.4,0c0.1,0,0.1,0,0.2,0S8.7,0.8,8.7,1c0.1,0.5,0.2,1.3-0.1,1.5c-0.1,0-0.4,0.1-0.5,0.1L7.9,2.7c0,0,0.3,0.3,0.1,0.6
	c0-0.2,0-0.4-0.2-0.5c-0.1,0-0.1,0-0.2,0C7.5,2.9,7,3.1,7,3.1L6.9,3.2c-0.1,0-0.3,0.1-0.3,0.1S7,3.5,7,3.8C6.7,3.5,6.6,3.4,6.6,3.4
	c-0.1-0.1-0.2-0.1-0.3,0C5.8,3.8,5.6,4.1,5.6,4.1c0.1,0,0.3,0.1,0.4,0.5C5.8,4.4,5.5,4.3,5.4,4.3c-0.3,0-0.3,0.2-0.3,0.4v0.1v0.1
	c0,0.2,0,0.4-0.1,0.5c-0.2,0-0.2-0.3-0.2-0.3c-0.1,0.1,0,0.3,0,0.5c0,0,0,0.1,0.1,0.1c0,0.1,0,0.2,0,0.3c0,0,0,0,0,0.1
	C4.7,6.3,4.7,6.6,4.2,6.6c0.3,0.2,0.7,0.5,0.5,1C4.4,8.1,4.4,8.1,4.4,8.1s0.5,1.2,1.4,1.5c0.7,0.2,0.5,0.5,0.1,0.3
	C6,10,6.2,10,6.3,10s0.1,0.1,0.2,0.1c0,0.1,0.3,0.2,0.6,0.2c0.4,0.1,0.6,0.2,0.6,0.3c-0.1,0.4-0.6,0-0.6,0s0.5,0.6,1.2,0.6
	s1.9,0.1,2.2,0.5c-0.1-0.2,0.1-0.5,0.9-0.5c0,0,0.1,0.6,1,0.5c0.1,0,0.1,0,0.2,0c-0.1-0.1-0.1-0.4,0-0.6c0-0.1,0.1-0.1,0.2-0.1
	c0,0,0,0,0.1,0c0,0,0-0.2,0.2-0.3s0.3-0.1,0.5,0.1c-0.1-0.2-0.1-0.4-0.2-0.6c0.1,0.1,0.5,0.8,0.5,1.7c0.2-0.3,0.7-0.7,1.2-0.7
	c0.1,0.1,0.4,0.3,0.5,0.3s0.1,0.1,0.1,0.1l0.3-0.2c0,0-0.1-0.1-0.2-0.1c-0.1,0.1-0.1,0.1-0.1,0.1s-0.4-0.1-0.4-0.3
	c0.2-0.1,0.4-0.2,0.5-0.2s0.1,0.1,0.1,0.1s0.2-0.2,0.2-0.3c-0.1-0.1-0.3-0.1-0.3-0.1c0,0.1-0.1,0.1-0.1,0.1L15.2,11
	c0,0-0.1-0.3-0.1-0.4c0.1-0.1,0.1-0.3,0.1-0.3c-0.2,0-0.3,0.1-0.3,0.2c0,0.1,0.1,0.3,0.1,0.3l-0.1,0.3c-0.1,0-0.1-0.1-0.1-0.1
	c-0.1,0-0.3,0.1-0.5,0.1c-0.1,0-0.1,0-0.1,0V11c-0.1-0.2,0.1-0.6,0.3-1.1c0.1-0.1,0.1-0.2,0.2-0.2c0.1-0.1,0.2,0,0.2,0.2
	c0,0,0.2-0.2,0.5-0.6c0.1-0.1,0.2-0.2,0.3-0.4c0,0,0.1-0.1,0.1-0.2c0-0.1,0.1-0.1,0.1-0.2c0-0.3,0-1,0.2-1.5c0,0,0,0,0.1,0
	c0.5,0-0.1,1.4-0.2,1.7c0,0,0.6-0.9,0.7-1.4c0,0.2,0,0.4,0,0.4s0.4-0.9,0-1.7h0.1c0.1,0,0.1,0.3,0.1,0.3C17,6.1,17,5.9,17,5.8
	c0-0.2,0.1-0.3,0.1-0.4C16.8,5.5,16.9,5.7,17,5.8z M8.8,5.6c0.1,0.1,0.3,0.1,0.4,0.1C9.1,5.6,8.9,5.5,8.9,5.4c0,0,0,0,0.1,0
	c0.2-0.1,0.3-0.1,0.4,0c0,0.1,0.1,0.3-0.2,0.3C8.9,5.8,8.7,5.8,8.6,5.9C8.6,6,8.7,5.8,8.8,5.6z"/>
<path class="st0" d="M17,5.8c0,0,0-0.6-0.1-1.1c0-0.7-0.5-1-0.6-1.1c0-0.1-0.1-0.1,0,0V3.5c0-0.5-0.6-0.9-0.6-0.9s0.2-0.4,0.2-0.5
	C16,2,16.1,2,16.2,2c-0.1-0.1-0.1-0.4,0.1-0.7S16.5,1,16.5,1l-0.1-0.3l0.1-0.2c-0.1-0.1-0.2-0.2-0.2-0.2s-0.2,0.3,0,0.3
	c0.1,0.1,0.1,0.3-0.1,0.4c-0.3-0.3-0.4-0.4-0.4-0.4V0.5c-0.1-0.1-0.3-0.1-0.3-0.1c-0.1,0.1-0.1,0.3,0,0.3s0.1,0,0.1,0
	C15.7,0.8,16,1.1,16,1.1l-0.4,0.1c0,0-0.1-0.1-0.3-0.1c0.1,0.2,0.2,0.4,0.2,0.4s0.1,0,0.2,0c0.1,0,0.2,0,0.3,0
	c-0.1,0.2-0.6,0.9-0.6,0.9s-0.2-0.7-0.7-0.9c-0.1,0.4-0.3,0.7-0.5,0.7c-0.1-0.4-0.3-0.7-0.3-0.7S13.8,1.9,13.6,2
	c0,0.5-0.1,0.9-0.3,1.2c0.1-0.3,0.1-0.6,0.1-0.8c0.1-0.5,0-0.4-0.2-0.6c-0.3-0.3-0.3-0.7-0.3-0.7c-0.2,0.1-0.2,0.4-0.3,0.5
	c-0.1,0-0.2,0.1-0.3,0.1c0.1,0.3,0.2,0.8,0.2,0.9s-0.1-0.3-0.2-0.5c0.1-0.1,0-0.3,0-0.4c-0.1,0.1-0.6,0.1-0.9-0.1
	c0.1,0.3-0.1,0.6-0.2,0.7C11,2.5,11,2.4,11,2.2v0.1c0,0.1-0.1,0.1-0.1,0.1c-0.1,0.2-0.3,0.5-0.6,0.6C9.8,3.2,9.6,3.3,9.2,3.8
	c-0.1,0-0.3-0.1-0.3-0.1C9,3.9,9,4,8.8,4.1C8.7,4.2,8.5,4.2,8.5,4C8.4,4.3,8,5.1,7.8,5.5C7.5,5.9,7.5,6.2,7.6,6.4
	C7.7,6.6,7.8,6.7,8,6.7s1.8-0.4,2.1-0.5s0.6-0.3,0.6-0.3S10.4,6,10.6,5.8c0.1-0.1,0.1-0.1,0.1-0.1c0.3-0.2,0.5-0.3,0.6-0.5
	c0.1-0.2-0.1-0.3-0.1-0.5V4.6c0,0,0,0,0-0.1s0.1-0.1,0.1-0.1c-0.1-0.1-0.2-0.1-0.2-0.2c0,0,0.1,0,0.1,0.1l0.1-0.1
	c0.1,0.1,0.1,0.1,0.2,0.1C11.7,4,11.9,3.9,12,3.8c0.2-0.1,0.3,0,0.3,0c0-0.1,0-0.3,0.1-0.3s0.3-0.1,0.4-0.3c-0.1,0.3,0,0.5-0.1,0.5
	c0.2,0.2,0.5,0.3,0.6,0.1C13.4,3.6,13.7,3.1,14,3c-0.1,0.1-0.3,0.3-0.3,0.4l-0.1,0.1c-0.2,0.3-0.1,0.6,0.1,0.7
	c0.1-0.3,0.5-0.5,0.5-0.5l-0.1,0.1c-0.1,0.1-0.3,0.4-0.4,0.6c-0.1,0.3-0.3,0.3-0.3,0.3s0.4,0.1,0.2,0.3c-0.1-0.3-0.4-0.3-0.5-0.3
	C13,4.6,13,4.6,13,4.6l-0.3,0.1c0,0,0.1,0.2,0.3,0.1c0.1,0,0.3-0.1,0.4,0.3l-0.5,0.1h-0.1c0,0-0.1,0.1-0.2,0.3
	c0.1,0.1,0.2,0.1,0.3,0.1C13,5.5,13,5.5,13,5.5l0.5-0.2c0,0,0,0.2,0.1,0.3c0,0.1-0.2,0.1,0,0.3c0.1-0.1,0.2-0.2,0.2-0.2V5.5
	c0,0,0.1-0.2,0-0.4c0.1-0.3,0.3-1,1-1.4c-0.1,0.1-0.1,0.1-0.1,0.1s0.1-0.1,0.3-0.2c-0.7,0.7-0.8,1.2-0.8,1.6
	c0.4-0.3,1.8-0.7,2.1-0.1c-0.5-0.1-2.2,0.1-2.2,0.8c0,0.3-0.1,0.7-0.1,0.7s0.3-0.2,0.5-0.1c-0.4,0.1-0.5,0.3-0.7,0.3
	c-0.1,0.1-0.5,0-0.5,0s1.6,0.5,1.7,1.8c-0.6-1.2-1.1-1.4-1.4-1.5C13.3,7,13.2,7,12.9,7.2c-0.3,0.1-0.6,0.2-0.7,0.1
	c0.1,0.1,0.2,0.4-0.1,0.7c-0.2-0.1-0.4-0.3-0.5-0.4c-0.1-0.1-0.1-0.3-0.1-0.5l0.2-0.3c0,0,0.4,0,0.6-0.1h0.1l0.1-0.3
	c0,0-0.3-0.1-0.3,0.1l-0.1,0.1c0,0-0.2,0-0.3-0.1C12,6.2,12.1,6,12.1,6l0.1-0.1c0,0,0.1-0.3,0-0.4c-0.2,0-0.3,0.1-0.3,0.1v0.1
	l-0.3,0.5c0,0-0.2-0.1-0.2-0.3c0-0.1,0-0.1,0-0.1s0-0.1-0.1-0.2c-0.1,0.1-0.1,0.3-0.1,0.3L11.3,6c0,0,0,0.3,0.1,0.4
	c0,0-0.3,0.5-0.7,0.7h-0.1c0.2,0.1,0.5,0.1,0.5,0.5c0.1,0.3,0.4,0.6,0.5,0.7c0.1,0.3,0.7,1.2,0.7,1.8c-0.3-0.8-0.9-2.2-1.6-2
	c-0.1,0-0.1,0.1-0.2,0.1C10,8.5,9.3,8.5,9.3,8.5l0.1,0.1c0,0,0,0,0,0.1H9.3C9.4,8.8,9.5,8.9,9.5,9c0.1,0.3,0.1,0.7,0,0.9
	c-0.1,0.4-0.3,0.6-0.3,0.6s0.4-1.2-0.1-1.9C8.8,8.1,8.6,8.3,8.6,8.4c0,0.1,0,0.1,0.1,0.1c0.1,0,0.1,0.1-0.1,0.1
	C8.5,8.6,8.1,8.3,8,8.1c0.2,0.2,0,0.1-0.1,0.3S7.3,8.9,7,9c0.4-0.2,0.6-0.7,0.6-0.7c-1.3,0-1.4-1.2-1.4-1.2c-0.3,0.3-0.7,0.4-1,0.5
	c0.3-0.1,1-0.4,1-0.8c0-0.1,0-0.1,0-0.1c0-0.1-0.1-0.4-0.1-0.5C6,5.8,6,5.6,6.2,5.4c0.1-0.3,0.2-0.5,0.1-0.5c0-0.1,0.1-0.1,0.1-0.2
	c0,0,0.3-0.8,0.5-0.3L7,4.3c0.1-0.1,0.2-0.5,0.4-0.5c0.1,0-0.1,0.2,0.1,0.1c0.2-0.1,0.9-0.3,0.9-0.3s-0.2,0,0-0.1
	c0.1-0.1,0.3-0.1,0.5-0.3c0.1,0,0.3-0.1,0.4-0.3C9.4,3,9.4,3,9.5,2.9C9.3,2.8,9.4,2.6,9.4,2.6l0.2-0.1c0.1-0.1,0.1-0.4-0.1-0.4
	C9.5,2,9.7,2,9.7,2V1.9c0-0.1,0-0.3-0.1-0.4C9.4,1.3,9.3,1.3,9.3,1.3s0.3-0.1,0.3,0.1c0-0.1,0-0.3,0.1-0.3C9.6,1.1,9.6,1,9.4,1
	c0.2-0.1,0.2-0.2,0.2-0.3c0,0,0,0.1-0.2,0.1c-0.1,0-0.1,0-0.2-0.1C9.1,0.5,9.1,0.4,9,0.4C8.7,0.3,8.2,0.6,8.1,0.6
	C8,0.6,7.9,0.5,7.9,0.5c0,0.2-0.1,0.3-0.3,0.5C7.2,1.2,7.5,1.7,7.8,1.7C7.7,1.6,7.7,1.5,7.7,1.5c0-0.1,0-0.1,0.1-0.1c0,0,0,0,0.1,0
	c0,0.1,0.2,0.3,0.6,0.2c0,0-0.3-0.2-0.3-0.4c0.1-0.1,0-0.3,0-0.3c0-0.1,0-0.1-0.1-0.2C8.1,0.8,8,0.9,8,0.8C7.9,0.7,7.9,0.6,8,0.7
	c0.1,0.1,0.3,0,0.4,0c0.1,0,0.1,0,0.2,0S8.7,0.8,8.7,1c0.1,0.5,0.2,1.3-0.1,1.5c-0.1,0-0.4,0.1-0.5,0.1L7.9,2.7c0,0,0.3,0.3,0.1,0.6
	c0-0.2,0-0.4-0.2-0.5c-0.1,0-0.1,0-0.2,0C7.5,2.9,7,3.1,7,3.1L6.9,3.2c-0.1,0-0.3,0.1-0.3,0.1S7,3.5,7,3.8C6.7,3.5,6.6,3.4,6.6,3.4
	c-0.1-0.1-0.2-0.1-0.3,0C5.8,3.8,5.6,4.1,5.6,4.1c0.1,0,0.3,0.1,0.4,0.5C5.8,4.4,5.5,4.3,5.4,4.3c-0.3,0-0.3,0.2-0.3,0.4v0.1v0.1
	c0,0.2,0,0.4-0.1,0.5c-0.2,0-0.2-0.3-0.2-0.3c-0.1,0.1,0,0.3,0,0.5c0,0,0,0.1,0.1,0.1c0,0.1,0,0.2,0,0.3c0,0,0,0,0,0.1
	C4.7,6.3,4.7,6.6,4.2,6.6c0.3,0.2,0.7,0.5,0.5,1C4.4,8.1,4.4,8.1,4.4,8.1s0.5,1.2,1.4,1.5c0.7,0.2,0.5,0.5,0.1,0.3
	C6,10,6.2,10,6.3,10s0.1,0.1,0.2,0.1c0,0.1,0.3,0.2,0.6,0.2c0.4,0.1,0.6,0.2,0.6,0.3c-0.1,0.4-0.6,0-0.6,0s0.5,0.6,1.2,0.6
	s1.9,0.1,2.2,0.5c-0.1-0.2,0.1-0.5,0.9-0.5c0,0,0.1,0.6,1,0.5c0.1,0,0.1,0,0.2,0c-0.1-0.1-0.1-0.4,0-0.6c0-0.1,0.1-0.1,0.2-0.1
	c0,0,0,0,0.1,0c0,0,0-0.2,0.2-0.3s0.3-0.1,0.5,0.1c-0.1-0.2-0.1-0.4-0.2-0.6c0.1,0.1,0.5,0.8,0.5,1.7c0.2-0.3,0.7-0.7,1.2-0.7
	c0.1,0.1,0.4,0.3,0.5,0.3s0.1,0.1,0.1,0.1l0.3-0.2c0,0-0.1-0.1-0.2-0.1c-0.1,0.1-0.1,0.1-0.1,0.1s-0.4-0.1-0.4-0.3
	c0.2-0.1,0.4-0.2,0.5-0.2s0.1,0.1,0.1,0.1s0.2-0.2,0.2-0.3c-0.1-0.1-0.3-0.1-0.3-0.1c0,0.1-0.1,0.1-0.1,0.1L15.2,11
	c0,0-0.1-0.3-0.1-0.4c0.1-0.1,0.1-0.3,0.1-0.3c-0.2,0-0.3,0.1-0.3,0.2c0,0.1,0.1,0.3,0.1,0.3l-0.1,0.3c-0.1,0-0.1-0.1-0.1-0.1
	c-0.1,0-0.3,0.1-0.5,0.1c-0.1,0-0.1,0-0.1,0V11c-0.1-0.2,0.1-0.6,0.3-1.1c0.1-0.1,0.1-0.2,0.2-0.2c0.1-0.1,0.2,0,0.2,0.2
	c0,0,0.2-0.2,0.5-0.6c0.1-0.1,0.2-0.2,0.3-0.4c0,0,0.1-0.1,0.1-0.2c0-0.1,0.1-0.1,0.1-0.2c0-0.3,0-1,0.2-1.5c0,0,0,0,0.1,0
	c0.5,0-0.1,1.4-0.2,1.7c0,0,0.6-0.9,0.7-1.4c0,0.2,0,0.4,0,0.4s0.4-0.9,0-1.7h0.1c0.1,0,0.1,0.3,0.1,0.3C17,6.1,17,5.9,17,5.8
	c0-0.2,0.1-0.3,0.1-0.4C16.8,5.5,16.9,5.7,17,5.8z M8.8,5.6c0.1,0.1,0.3,0.1,0.4,0.1C9.1,5.6,8.9,5.5,8.9,5.4c0,0,0,0,0.1,0
	c0.2-0.1,0.3-0.1,0.4,0c0,0.1,0.1,0.3-0.2,0.3C8.9,5.8,8.7,5.8,8.6,5.9C8.6,6,8.7,5.8,8.8,5.6z"/>
<g>
	<path class="st0" d="M6.2,17.6c-1.2,0-1.7-0.3-1.9-0.9c0-0.1,0-0.3,0-0.4h1.5c0,0.2,0,0.3,0.5,0.3c0.3,0,0.4,0,0.4-0.2
		c0-0.1-0.1-0.2-0.6-0.2c-0.1,0-0.4,0-0.5-0.1c-0.9-0.1-1.3-0.4-1.3-1.1C4.2,14.5,5,14,6.1,14c1.1,0,1.6,0.4,1.8,0.8
		C8,15,8,15.1,8,15.2H6.6c0-0.2-0.1-0.3-0.5-0.3c-0.2,0-0.3,0-0.3,0.1c0,0.1,0.1,0.2,0.8,0.3c0.2,0,0.3,0,0.5,0.1
		c0.7,0.1,1.1,0.4,1.1,1.1C8.1,17.2,7.4,17.6,6.2,17.6z"/>
	<path class="st0" d="M9.5,17.6H8.1L9.5,14h1.8l1.3,3.5h-1.5l-0.2-0.7H9.8L9.5,17.6z M10.4,15.5l-0.1-0.2l-0.1,0.2l-0.2,0.6h0.5
		L10.4,15.5z"/>
	<path class="st0" d="M14.7,15.1v2.5h-1.4v-2.5h-1.1v-1h3.7v1H14.7z"/>
	<path class="st0" d="M17.3,17.6v-1c1-0.4,1.7-0.8,1.7-1.3c0-0.1,0-0.1,0-0.2C19,15,19,15,18.9,15c-0.1,0-0.2,0.1-0.2,0.2
		c0,0.1,0,0.3,0,0.4h-1.4c0-0.1,0-0.4,0-0.6c0.1-0.5,0.5-1,1.7-1c1.2,0,1.6,0.5,1.6,1c0,0.1,0,0.2,0,0.3c0,0.6-0.8,1.1-1.2,1.3h1.3
		v1H17.3z"/>
	<path class="st0" d="M22.6,17.6h-1.5l1.2-2.5h-1.6v-1h3V15L22.6,17.6z"/>
	<path class="st0" d="M25.4,14.6v1.5h-0.8v-1.5h-0.6V14H26v0.6H25.4z"/>
	<path class="st0" d="M27.6,16.1v-0.7H27v0.7h-0.8V14H27v0.7h0.6V14h0.8v2.1H27.6z"/>
	<path class="st0" d="M30.8,17.6c-0.3,0-0.7,0-0.8,0v-1c0.1,0,0.3,0,0.5,0c0.2,0,0.3-0.2,0.3-0.3V14h1.4v2.4
		C32.1,17.2,31.6,17.6,30.8,17.6z"/>
	<path class="st0" d="M34.3,17.6c-1.1,0-1.9-0.4-1.9-1.4c0-0.1,0-2.2,0-2.2h1.4c0,0,0,2.1,0,2.2c0,0.2,0.2,0.4,0.5,0.4
		c0.3,0,0.5-0.2,0.5-0.4c0-0.1,0-2.2,0-2.2h1.4c0,0,0,2.1,0,2.3C36.2,17.2,35.4,17.6,34.3,17.6z"/>
	<path class="st0" d="M36.6,17.6V14H38v2.5h1.6v1.1H36.6z"/>
	<path class="st0" d="M41.7,16.4v1.2h-1.4v-1.2L38.9,14h1.5l0.6,1.1l0.7-1.1h1.5L41.7,16.4z"/>
	<path class="st0" d="M44.6,17.6v-1c1-0.4,1.7-0.8,1.7-1.3c0-0.1,0-0.1,0-0.2c0-0.1-0.1-0.2-0.2-0.2C46.1,15,46,15,46,15.1
		c0,0.1,0,0.3,0,0.4h-1.4c0-0.1,0-0.4,0-0.6c0.1-0.5,0.5-1,1.7-1c1.2,0,1.6,0.5,1.6,1c0,0.1,0,0.2,0,0.3c0,0.6-0.8,1.1-1.2,1.3H48v1
		H44.6z"/>
	<path class="st0" d="M51.6,15.2c0,0.1,0,0.4,0,0.6c0,0.2,0,0.5,0,0.6c-0.1,0.7-0.7,1.2-1.7,1.2c-1.1,0-1.6-0.5-1.7-1.2
		c0-0.2,0-0.4,0-0.6c0-0.3,0-0.5,0-0.6c0.1-0.6,0.6-1.2,1.7-1.2C51,14,51.5,14.5,51.6,15.2z M50.2,15.4c0-0.3-0.1-0.4-0.3-0.4
		c-0.2,0-0.3,0.1-0.3,0.4c0,0.1,0,0.3,0,0.4c0,0.2,0,0.4,0,0.4c0,0.3,0.1,0.4,0.3,0.4c0.2,0,0.3-0.1,0.3-0.4c0-0.1,0-0.3,0-0.4V15.4
		z"/>
	<path class="st0" d="M51.8,17.6v-1c1-0.4,1.7-0.8,1.7-1.3c0-0.1,0-0.1,0-0.2c0-0.1-0.1-0.2-0.2-0.2c-0.1,0-0.2,0.1-0.2,0.2
		c0,0.1,0,0.3,0,0.4h-1.4c0-0.1,0-0.4,0-0.6c0.1-0.5,0.5-1,1.7-1c1.2,0,1.6,0.5,1.6,1c0,0.1,0,0.2,0,0.3c0,0.6-0.8,1.1-1.2,1.3h1.3
		v1H51.8z"/>
	<path class="st0" d="M58.4,17.1v0.5H57V17h-1.7v-1l1.8-2h1.3v2h0.4v1H58.4z M57,15.5L56.6,16H57V15.5z"/>
	<path class="st0" d="M60.3,16.4v-1.3h1.4v1.3H60.3z"/>
	<path class="st0" d="M66.7,16.4c0,0.1,0,0.2,0,0.3c0,0.5-0.4,1-1.7,1c-1.1,0-1.6-0.3-1.7-0.8c0-0.2,0-0.4,0-0.4h1.4
		c0,0,0,0.2,0,0.2c0,0.1,0.1,0.2,0.2,0.2c0.2,0,0.2-0.1,0.3-0.2c0-0.1,0-0.1,0-0.2c0-0.1-0.1-0.2-0.4-0.2c-0.2,0-0.7,0-0.7,0v-0.8
		c0,0,0.6,0,0.7,0c0.2,0,0.3-0.1,0.3-0.2c0,0,0-0.1,0-0.1c0-0.1-0.1-0.2-0.2-0.2c-0.1,0-0.2,0.1-0.2,0.2c0,0.1,0,0.2,0,0.2h-1.3
		c0-0.1,0-0.4,0.1-0.5C63.6,14.3,64,14,65,14c1,0,1.5,0.4,1.6,0.8c0,0,0,0.1,0,0.2c0,0.4-0.2,0.6-0.7,0.7
		C66.4,15.7,66.7,16,66.7,16.4z"/>
	<path class="st0" d="M67.5,17.6v-2.1h-0.7v-1c0.6,0,0.9-0.2,1-0.4h1.1v3.6H67.5z"/>
	<path class="st0" d="M70.3,16.1c-0.7,0-1-0.2-1.1-0.5c0-0.1,0-0.2,0-0.2H70c0,0.1,0,0.2,0.3,0.2c0.2,0,0.2,0,0.2-0.1
		c0-0.1-0.1-0.1-0.3-0.1c-0.1,0-0.2,0-0.3,0c-0.5-0.1-0.8-0.2-0.8-0.7c0-0.4,0.4-0.6,1.1-0.6c0.6,0,0.9,0.2,1,0.5
		c0,0.1,0.1,0.2,0.1,0.2h-0.8c0-0.1-0.1-0.2-0.3-0.2c-0.1,0-0.2,0-0.2,0.1c0,0.1,0.1,0.1,0.5,0.2c0.1,0,0.2,0,0.3,0
		c0.4,0.1,0.6,0.2,0.6,0.6C71.4,15.9,71,16.1,70.3,16.1z"/>
	<path class="st0" d="M72.9,14.6v1.5h-0.8v-1.5h-0.6V14h2.1v0.6H72.9z"/>
	<path class="st0" d="M75.2,17.6V14h3.3v1h-2v0.3h1.9v1h-1.9v0.3h2v1H75.2z"/>
	<path class="st0" d="M81.1,17.6h-2.3V14H81c0.7,0,1.2,0.2,1.4,0.5c0.2,0.3,0.2,0.6,0.2,1.2c0,0.7,0,1-0.2,1.3
		C82.2,17.4,81.8,17.6,81.1,17.6z M81.3,15.7c0-0.1,0-0.4-0.1-0.5C81.1,15.1,81,15,80.8,15h-0.5v1.6h0.5c0.2,0,0.4-0.1,0.5-0.2
		C81.3,16.3,81.3,15.9,81.3,15.7z"/>
	<path class="st0" d="M83,17.6V14h1.5v3.5H83z"/>
	<path class="st0" d="M87.2,15.1v2.5h-1.4v-2.5h-1.1v-1h3.7v1H87.2z"/>
	<path class="st0" d="M88.5,17.6V14h1.5v3.5H88.5z"/>
	<path class="st0" d="M94.1,14.8c0.2,0.3,0.2,0.6,0.2,1c0,0.4-0.1,0.8-0.2,1c-0.3,0.5-0.9,0.8-1.9,0.8c-1,0-1.6-0.3-1.9-0.8
		c-0.1-0.3-0.2-0.6-0.2-1c0-0.4,0.1-0.7,0.2-1c0.3-0.5,0.8-0.9,1.9-0.9C93.2,14,93.8,14.2,94.1,14.8z M92.9,15.8
		c0-0.5-0.1-0.8-0.7-0.8c-0.5,0-0.6,0.3-0.6,0.8c0,0.5,0.1,0.8,0.6,0.8C92.9,16.6,92.9,16.3,92.9,15.8z"/>
	<path class="st0" d="M96.9,17.6l-1-1.5v1.5h-1.3V14H96l0.9,1.5V14h1.3v3.5H96.9z"/>
</g>
</svg>
